<svg xmlns:dc="http://purl.org/dc/elements/1.1/" xmlns:cc="http://creativecommons.org/ns#" xmlns:rdf="http://www.w3.org/1999/02/22-rdf-syntax-ns#" xmlns:svg="http://www.w3.org/2000/svg" xmlns="http://www.w3.org/2000/svg" xmlns:xlink="http://www.w3.org/1999/xlink" id="svg53934" version="1.1" viewBox="313.72 343.57 396.56 80.86">   <metadata id="metadata53940">     <rdf:rdf>       <cc:work rdf:about="">         <dc:format>image/svg+xml</dc:format>         <dc:type rdf:resource="http://purl.org/dc/dcmitype/StillImage"></dc:type>       </cc:work>     </rdf:rdf>   </metadata>   <defs id="defs53938"></defs>   <linearGradient spreadMethod="pad" y2="30%" x2="-10%" y1="120%" x1="30%" id="3d_gradient2-logo-d7c67094-93d1-4bd1-ad11-34f0d6a6e318">     <stop id="stop53915" stop-opacity="1" stop-color="#ffffff" offset="0%"></stop>     <stop id="stop53917" stop-opacity="1" stop-color="#000000" offset="100%"></stop>   </linearGradient>   <linearGradient gradientTransform="rotate(-30)" spreadMethod="pad" y2="30%" x2="-10%" y1="120%" x1="30%" id="3d_gradient3-logo-d7c67094-93d1-4bd1-ad11-34f0d6a6e318">     <stop id="stop53920" stop-opacity="1" stop-color="#ffffff" offset="0%"></stop>     <stop id="stop53922" stop-opacity="1" stop-color="#cccccc" offset="50%"></stop>     <stop id="stop53924" stop-opacity="1" stop-color="#000000" offset="100%"></stop>   </linearGradient>   <g id="logo-group">     <image xlink:href="" id="container" x="272" y="144" width="480" height="480" style="display: none;" transform="translate(0 0)"></image>     <g id="logo-center" transform="translate(1.1368683772161603e-13 0)">       <image xlink:href="" id="icon_container" style="display: none;"></image>       <g id="slogan" style="font-style:normal;font-weight:700;font-size:32px;line-height:1;font-family:Numans;font-variant-ligatures:none;text-align:center;text-anchor:middle" transform="translate(0 0)"></g>       <g id="title" style="font-style:normal;font-weight:normal;font-size:72px;line-height:1;font-family:'Freckle Face';font-variant-ligatures:none;text-align:center;text-anchor:middle" transform="translate(0 0)">         <path id="path53943" style="font-style:normal;font-weight:normal;font-size:72px;line-height:1;font-family:'Freckle Face';font-variant-ligatures:none;text-align:center;text-anchor:middle" d="m 372.00781,-15.785156 q -0.0703,0.984375 -0.35156,1.863281 -0.28125,0.878906 -0.28125,1.757812 0,0.421875 0.0703,1.089844 0.0703,0.667969 0.0703,1.4414065 0,1.3359375 -0.63281,2.390625 -0.63281,1.0546875 -1.61719,1.96875 -0.98437,0.9140625 -2.21484,1.7929687 -1.19531,0.84375 -2.39062,1.7578126 -0.84375,0.6679687 -1.40625,1.33593745 -0.5625,0.66796875 -1.30079,1.1953125 -0.73828,0.52734375 -1.86328,0.84374995 -1.125,0.3515626 -3.1289,0.3515626 -1.08985,0 -2.25,-0.1757813 -1.125,-0.140625 -2.25,-0.3515625 -1.125,-0.2109375 -2.17969,-0.3867188 -1.01953,-0.14062495 -1.89844,-0.14062495 -0.73828,0 -1.40625,0.14062495 -0.66797,0.140625 -1.33594,0.140625 -0.28125,0 -0.98437,-0.2460937 -0.70313,-0.2109375 -1.51172,-0.6328125 -0.80859,-0.38671875 -1.61719,-0.94921875 -0.80859,-0.59765625 -1.33593,-1.33593745 -0.49219,-0.6679688 -0.63282,-1.4062501 -0.10547,-0.7734374 -0.45703,-1.4765624 -0.49219,-0.8789063 -1.30078,-1.6875 -0.77344,-0.8085938 -1.37109,-1.9335938 -0.52735,-1.0195313 -0.91407,-2.460938 -0.38671,-1.441406 -0.8789,-2.847656 -0.63281,-1.863281 -1.26563,-3.339843 -0.59765,-1.476563 -0.59765,-2.496094 0,-1.160156 0.3164,-2.460938 0.31641,-1.335937 0.84375,-2.460937 0.52735,-1.160156 1.19532,-1.898438 0.70312,-0.738281 1.4414,-0.738281 0.38672,0 0.8086,0.140625 0.42187,0.140625 0.8789,0.140625 0.59766,-0.07031 0.98438,-0.351562 0.42187,-0.28125 0.8789,-0.28125 0.45703,0 1.30078,0.175781 0.84375,0.140625 1.72266,0.386719 0.91406,0.246093 1.6875,0.492187 0.80859,0.246094 1.19531,0.457031 0.5625,0.28125 1.19532,0.984375 0.63281,0.703125 1.16015,1.546875 0.52735,0.84375 0.87891,1.757813 0.35156,0.914062 0.35156,1.617187 0,0.386719 -0.0352,0.808594 -0.0351,0.386719 -0.0351,0.773438 0,0.703125 0.24609,1.441406 0.2461,0.703125 0.42188,1.582031 0.14062,0.984375 0.17578,1.863281 0.0703,0.878906 0.17578,1.652344 0.10547,0.738281 0.28125,1.40625 0.21094,0.6679687 0.70312,1.265625 0.70313,0.9140625 1.96875,1.4765625 1.26563,0.5273438 2.4961,0.5273438 0.77344,0 1.23047,-0.2460938 0.49218,-0.2460937 0.84375,-0.5976563 0.35156,-0.3515625 0.66797,-0.703125 0.35156,-0.3867187 0.80859,-0.6679687 0.70312,-0.421875 1.33594,-0.6328125 0.63281,-0.246094 1.125,-0.597656 0.49218,-0.386719 0.77343,-1.019532 0.28125,-0.632812 0.28125,-1.863281 0,-0.984375 -0.38671,-2.074219 -0.35157,-1.124999 -0.45704,-2.249999 -0.10546,-0.984375 -0.14062,-1.652344 -0.0352,-0.703125 -0.14063,-1.300781 -0.0703,-0.632813 -0.28125,-1.230469 -0.21093,-0.632813 -0.73828,-1.441406 -0.14062,-0.140625 -0.63281,-0.703125 -0.49219,-0.597657 -1.16016,-1.230469 -0.63281,-0.632813 -1.37109,-1.125 -0.73828,-0.527344 -1.37109,-0.527344 -0.28125,0 -0.5625,0.03516 -0.2461,0.03516 -0.52735,0.03516 -1.125,0 -2.32031,-0.492188 -1.16016,-0.492187 -2.39062,-1.195312 -1.23047,-0.738282 -2.4961,-1.546875 -1.26562,-0.808594 -2.53125,-1.441407 -1.05469,-0.527343 -2.39062,-0.984375 -1.30078,-0.457031 -2.46094,-1.019531 -1.16016,-0.5625 -1.93359,-1.300781 -0.77344,-0.773438 -0.77344,-1.898438 0,-0.210937 0.0703,-0.84375 0.10547,-0.632812 0.24609,-1.441406 0.14063,-0.84375 0.35157,-1.792969 0.21093,-0.984375 0.49218,-1.863281 0.28125,-0.914062 0.5625,-1.652344 0.31641,-0.738281 0.66797,-1.160156 0.49219,-0.597656 1.23047,-1.160156 0.77344,-0.5625 1.51172,-0.984375 0.73828,-0.457031 1.30078,-0.703125 0.59766,-0.28125 0.77344,-0.28125 0.31641,0 0.59766,0.07031 0.3164,0.03516 0.63281,0.03516 0.66797,0 1.125,-0.140625 0.49219,-0.175782 0.84375,-0.421875 0.38672,-0.246094 0.73828,-0.457032 0.35156,-0.246093 0.80859,-0.421875 0.59766,-0.246093 1.44141,-0.246093 0.87891,-0.03516 1.72266,-0.210938 0.98437,-0.210937 2.46093,-0.492187 1.51172,-0.316407 3.02344,-0.5625 1.54688,-0.28125 2.88281,-0.457032 1.33594,-0.175781 2.00391,-0.140625 0.35156,0 0.73828,0.175782 0.42188,0.175781 0.63281,0.773437 0.45703,0.316406 1.05469,0.457031 0.59766,0.140625 0.98438,0.457032 0.52734,0.457031 1.08984,1.195312 0.59766,0.738281 1.125,1.265625 0.52734,0.527344 0.91406,0.949219 0.42188,0.386719 0.66797,0.773437 0.28125,0.351563 0.38672,0.773438 0.14062,0.386719 0.14062,0.949219 0,1.125 -0.24609,2.179687 -0.24609,1.054688 -0.84375,1.898438 -0.5625,0.808593 -1.54687,1.335937 -0.94922,0.492188 -2.42579,0.492188 -0.8789,0 -1.89843,-0.175782 -1.01953,-0.210937 -1.82813,-0.527343 -0.42187,-0.140625 -0.84375,-0.457032 -0.42187,-0.316406 -0.84375,-0.632812 -0.42187,-0.351563 -0.8789,-0.667969 -0.45704,-0.316406 -0.98438,-0.492187 -0.52734,-0.175782 -1.37109,-0.316407 -0.84375,-0.175781 -1.75782,-0.28125 -0.8789,-0.105468 -1.72265,-0.175781 -0.84375,-0.07031 -1.40625,-0.07031 -0.73828,0 -1.44141,0.105468 -0.70312,0.07031 -1.26562,0.351563 -0.52735,0.246094 -0.87891,0.703125 -0.35156,0.457031 -0.35156,1.195312 0,0.421875 0.14062,0.738282 0.17578,0.316406 0.45703,0.597656 0.31641,0.246094 0.77344,0.527344 0.45703,0.28125 1.05469,0.667968 0.52734,0.351563 1.01953,0.773438 0.52734,0.421875 1.01953,0.808594 0.52735,0.386718 1.05469,0.738281 0.52734,0.351562 1.08984,0.5625 0.66797,0.210937 1.3711,0.28125 0.73828,0.03516 1.30078,0.140625 2.07422,0.492187 3.86719,1.441406 1.82812,0.914063 3.375,2.144531 1.54687,1.230469 2.77734,2.671875 1.26562,1.40625 2.21484,2.882813 0.45703,0.738281 0.73828,1.335937 0.28125,0.5625 0.42188,1.160157 0.14062,0.5625 0.17578,1.230468 0.0352,0.667969 0.0352,1.617188 0,1.089844 0.21093,2.109375 0.21094,1.019531 0.21094,1.828125 z" stroke-width="0" stroke-linejoin="miter" stroke-miterlimit="2" fill="#d97757" stroke="#d97757" transform="translate(0 299.38410159) translate(313.72189325 44.80549755) scale(1.11) translate(-332.77342 52.283195)"></path>         <path id="path53945" style="font-style:normal;font-weight:normal;font-size:72px;line-height:1;font-family:'Freckle Face';font-variant-ligatures:none;text-align:center;text-anchor:middle" d="m 418.0625,7.6992187 q 0,0.28125 -0.21094,0.8437501 -0.17578,0.5976562 -0.24609,1.40625 0,0.4218752 0.10547,0.9843752 0.14062,0.597656 0.14062,1.019531 0,0.667969 -0.35156,1.195313 -0.31641,0.527343 -0.31641,0.949218 0,0.808594 0.31641,1.335938 0.35156,0.527344 0.35156,0.914062 -0.14062,1.089844 -0.80859,1.792969 -0.66797,0.703125 -1.44141,1.125 -0.73828,0.421875 -1.40625,0.5625 -0.63281,0.175781 -0.73828,0.175781 -1.26562,0 -2.63672,-0.316406 -1.37109,-0.28125 -2.70703,-0.738281 -1.30078,-0.421875 -2.46094,-0.914063 -1.16015,-0.492187 -2.0039,-0.84375 -1.79297,-0.738281 -3.23438,-1.335937 -1.4414,-0.5625 -2.46094,-1.40625 -0.98437,-0.808594 -1.54687,-2.074219 -0.52734,-1.230469 -0.52734,-3.3046875 0,-1.1601563 0.10546,-2.109375 0.10547,-0.9492188 0.2461,-1.828125 0.17578,-0.8789063 0.35156,-1.7929687 0.21094,-0.8789063 0.38672,-1.8984376 0.10547,-0.84374995 0.14062,-1.40624995 0.0352,-0.5625 0.0703,-1.05468745 0.0351,-0.4921875 0.0703,-1.0195313 0.0352,-0.5273438 0.14062,-1.3359375 0.0352,-0.5273438 0.17579,-1.1601562 0.14062,-0.6679688 0.28125,-1.3007813 0.14062,-0.6679687 0.24609,-1.265625 0.10547,-0.6328125 0.10547,-1.0898438 0,-0.3515625 -0.0703,-0.5625 Q 398.05859,-9 397.88281,-9 q -0.21094,0 -0.66797,0.2460937 -0.42187,0.2460938 -0.91406,0.5273438 -0.45703,0.28125 -0.91406,0.5625 -0.45703,0.28125 -0.66797,0.3164063 -0.63281,0.1757812 -1.65234,0.1757812 -0.98438,-0.035156 -1.86329,0.035156 -0.8789,0.1054687 -1.75781,0.3164062 -0.8789,0.2109375 -1.61719,0.140625 -0.77343,-0.035156 -1.61718,-0.28125 -0.84375,-0.2460937 -1.72266,-0.5625 -0.84375,-0.3515625 -1.6875,-0.6679688 -0.84375,-0.3164062 -1.61719,-0.5273437 -0.42187,-0.1054688 -0.8789,-0.1757813 -0.45703,-0.070312 -0.91407,-0.140625 -0.42187,-0.070312 -0.77343,-0.140625 -0.35157,-0.070312 -0.52735,-0.1757812 -0.84375,-0.4570313 -1.54687,-1.6523435 -0.70313,-1.195313 -1.23047,-2.671875 -0.49219,-1.511719 -0.80859,-3.058594 -0.28125,-1.546875 -0.28125,-2.707031 0,-1.476563 0.35156,-2.917969 0.35156,-1.441406 0.35156,-2.847656 0,-0.421875 -0.0352,-0.738281 -0.0351,-0.351563 -0.0351,-0.703125 0,-0.949219 0.5625,-1.933594 0.59765,-0.984375 1.47656,-1.863281 0.91406,-0.878907 1.93359,-1.652344 1.05469,-0.773438 1.96875,-1.335938 0.94922,-0.5625 1.61719,-0.914062 0.66797,-0.351563 0.8086,-0.351563 0.3164,-0.07031 0.66796,-0.105468 0.38672,-0.03516 0.84375,-0.03516 1.3711,0 2.4961,0.210938 1.16015,0.210937 2.28515,0.5625 1.125,0.316406 2.32032,0.808594 1.19531,0.457031 2.67187,0.984375 0.42188,0.175781 0.98438,0.28125 0.5625,0.105468 1.26562,0.386718 0.38672,0.210938 0.98438,0.5625 0.63281,0.316407 0.94922,0.316407 0.42187,0 0.59765,-0.492188 0.17578,-0.492187 0.28125,-1.125 0.10547,-0.667969 0.21094,-1.335937 0.14062,-0.667969 0.49219,-1.019532 0.14062,-0.140625 0.45703,-0.246093 0.35156,-0.140625 0.73828,-0.210938 0.42187,-0.105469 0.84375,-0.140625 0.45703,-0.07031 0.77344,-0.07031 0.80859,0 1.33593,0.878906 0.52735,0.878906 0.84375,2.320312 0.31641,1.40625 0.42188,3.199219 0.14062,1.792969 0.17578,3.585938 0.0703,1.792968 0.0352,3.445312 0,1.652344 0,2.777344 0,1.265625 0.10547,2.636719 0.10546,1.335937 0.21093,2.742187 0.10547,1.40625 0.21094,2.8125 0.10547,1.3710937 0.10547,2.671875 0,0.5976563 -0.0352,1.1953125 -0.0351,0.5976563 -0.0351,1.125 0,0.5625 0.14062,1.0195313 0.14063,0.421875 0.31641,0.8085937 0.21094,0.3515625 0.35156,0.6679687 0.14063,0.28125 0.14063,0.5273438 0,0.3164062 -0.14063,0.6328125 -0.10547,0.3164062 -0.28125,0.703125 -0.14062,0.3867188 -0.28125,0.84375 -0.10547,0.45703125 -0.10547,0.984375 0,2.0039063 0.59766,2.953125 0.59765,0.9492187 1.58203,0.9492187 0.49219,0 0.91406,-0.1054687 0.45703,-0.1054687 0.94922,-0.1054687 0.63281,0 1.47656,0.2460937 0.87891,0.28125 1.75782,0.3867187 0.77343,0.140625 1.47656,0.2460938 0.73828,0.140625 1.30078,0.421875 0.5625,0.3164062 0.91406,0.8789062 0.38672,0.5976563 0.49219,1.6171875 z M 399.60547,-23.414062 Q 399.5,-23.625 398.97266,-23.871094 q -0.49219,-0.28125 -1.23047,-0.527343 -0.70313,-0.28125 -1.54688,-0.527344 -0.80859,-0.28125 -1.61719,-0.457031 -0.77343,-0.210938 -1.40625,-0.316407 -0.59765,-0.140625 -0.8789,-0.140625 -1.08985,0 -1.79297,0.386719 -0.66797,0.351563 -1.08984,1.125 -0.38672,0.738281 -0.52735,1.898438 -0.14062,1.125 -0.14062,2.707031 0,1.582031 0.21093,2.460937 0.2461,0.878907 0.73829,1.335938 0.49218,0.457031 1.30078,0.5625 0.80859,0.105468 1.93359,0.105468 0.21094,0 0.35156,-0.03516 0.17578,-0.03516 0.35157,-0.03516 0.24609,-0.03516 1.08984,-0.140625 0.84375,-0.140625 1.75781,-0.28125 0.94922,-0.175781 1.6875,-0.316406 0.73828,-0.140625 0.8086,-0.210938 0.17578,-0.140625 0.3164,-0.667968 0.17578,-0.5625 0.28125,-1.335938 0.14063,-0.773437 0.21094,-1.617187 0.0703,-0.878907 0.0703,-1.617188 0,-0.667969 -0.0703,-1.160156 -0.0352,-0.492188 -0.17578,-0.738281 z" stroke-width="0" stroke-linejoin="miter" stroke-miterlimit="2" fill="#d97757" stroke="#d97757" transform="translate(0 299.38410159) translate(359.73054965 63.58226532) scale(1.11) translate(-374.22266 35.367188)"></path>         <path id="path53947" style="font-style:normal;font-weight:normal;font-size:72px;line-height:1;font-family:'Freckle Face';font-variant-ligatures:none;text-align:center;text-anchor:middle" d="m 446.57422,-12.234375 q 0.28125,1.125 0.42187,1.863281 0.14063,0.7382815 0.14063,1.3007815 0,0.4921875 -0.14063,0.84375 -0.10547,0.3515625 -0.42187,0.703125 -0.28125,0.3164063 -0.77344,0.6679688 -0.49219,0.3515625 -1.23047,0.8085937 -0.73828,0.4570313 -1.23047,0.84375 -0.45703,0.3515625 -0.8789,0.6328125 -0.42188,0.2460938 -0.87891,0.3867188 -0.45703,0.140625 -1.125,0.140625 -1.40625,0 -2.35547,-0.8789063 -0.94922,-0.8789062 -0.94922,-2.5664062 0,-0.4921875 0.0352,-1.1601563 0.0352,-0.6679688 0.0352,-1.3710935 0,-0.914063 -0.10547,-1.652344 -0.10547,-0.773438 -0.49219,-0.773438 -0.24609,0 -0.91406,0.246094 -0.63282,0.210938 -1.47657,0.597656 -0.80859,0.351563 -1.72265,0.773438 -0.91406,0.386719 -1.72266,0.773437 -0.77344,0.351563 -1.33594,0.632813 -0.5625,0.2460937 -0.66796,0.28125 -0.28125,0.070312 -0.5625,0.1054687 Q 427.94141,-9 427.55469,-9 427.0625,-9 426.5,-9.0351563 q -0.5625,-0.035156 -1.16016,-0.035156 -1.23047,0 -2.39062,0.28125 -1.125,0.2460937 -2.21485,0.5625 -1.05468,0.28125 -2.10937,0.5625 -1.01953,0.2460938 -2.00391,0.2460938 -1.37109,0 -2.32031,-0.7382813 -0.91406,-0.7734375 -1.54687,-1.96875 -0.63282,-1.230469 -1.01954,-2.742188 -0.35156,-1.546875 -0.52734,-3.09375 -0.17578,-1.582031 -0.24609,-2.988281 -0.0352,-1.40625 -0.0352,-2.425781 0,-0.632812 0.14063,-1.300781 0.17578,-0.667969 0.35156,-1.300781 0.21094,-0.632813 0.35156,-1.195313 0.17578,-0.597656 0.17578,-1.125 0,-0.808594 -0.0703,-1.652344 -0.0703,-0.84375 -0.0703,-1.722656 0,-1.300781 0.45703,-2.8125 0.49219,-1.546875 0.98437,-3.09375 0.35157,-1.089844 0.5625,-1.898437 0.21094,-0.84375 0.5625,-1.40625 0.38672,-0.5625 1.01953,-0.84375 0.66797,-0.316407 1.86329,-0.316407 0.28125,0 0.94921,0.105469 0.66797,0.105469 1.51172,0.28125 0.87891,0.175781 1.79297,0.421875 0.94922,0.210938 1.75781,0.492188 0.84375,0.28125 1.44141,0.597656 0.59766,0.28125 0.77344,0.5625 0.21094,0.386719 0.28125,0.84375 0.0703,0.457031 0.0703,0.949219 0,0.738281 -0.14062,1.511718 -0.10547,0.773438 -0.2461,1.476563 -0.14062,0.703125 -0.28125,1.300781 -0.10547,0.597656 -0.10547,0.984375 0,0.386719 0.10547,0.84375 0.10547,0.457031 0.10547,0.949219 -0.0703,0.527344 -0.28125,1.054687 -0.17578,0.527344 -0.24609,0.949219 0,0.773438 0.14062,1.792969 0.17578,1.019531 0.17578,2.039062 0,0.527344 -0.10547,0.984375 -0.0703,0.421875 -0.17578,0.84375 -0.10547,0.386719 -0.21093,0.703125 -0.0703,0.316407 -0.0352,0.5625 0.0352,0.738282 0.0703,1.195313 0.0703,0.457031 0.21094,0.703125 0.17578,0.246094 0.42187,0.316406 0.2461,0.07031 0.66797,0.07031 1.47657,0 2.95313,-0.07031 1.47656,-0.07031 2.8125,-0.246094 1.37109,-0.175781 2.49609,-0.421875 1.16016,-0.28125 1.96875,-0.703125 0.31641,-0.316406 0.42188,-1.089843 0.14062,-0.773438 0.14062,-1.617188 0.0352,-0.878906 -0.0351,-1.617187 -0.0352,-0.773438 -0.0352,-1.054688 0,-3.585937 -0.24609,-6.046875 -0.2461,-2.460937 -0.2461,-3.691406 0,-0.316406 0.17578,-0.84375 0.17578,-0.527344 0.49219,-1.019531 0.35156,-0.492188 0.87891,-0.84375 0.52734,-0.386719 1.26562,-0.386719 0.73828,0 1.40625,0.246094 0.66797,0.210937 1.16016,0.597656 0.52734,0.351562 0.84375,0.84375 0.3164,0.457031 0.3164,0.984375 0,0.421875 -0.0703,0.984375 -0.0703,0.5625 -0.0703,1.089844 0,0.949218 0.17578,2.109375 0.17578,1.125 0.38672,2.25 0.24609,1.125 0.42187,2.179687 0.17579,1.054688 0.17579,1.828125 0,0.808594 -0.14063,1.546875 -0.14062,0.703125 -0.14062,1.40625 0,0.84375 0.28125,1.511719 0.28125,0.667969 0.63281,1.265625 0.38672,0.5625 0.77344,1.054687 0.38671,0.492188 0.59765,0.984375 0.28125,0.703125 0.42188,1.828125 0.17578,1.125 0.45703,2.214844 z" stroke-width="0" stroke-linejoin="miter" stroke-miterlimit="2" fill="#d97757" stroke="#d97757" transform="translate(0 299.38410159) translate(400.47096845 58.39214841) scale(1.11) translate(-410.92574 40.042969)"></path>         <path id="path53949" style="font-style:normal;font-weight:normal;font-size:72px;line-height:1;font-family:'Freckle Face';font-variant-ligatures:none;text-align:center;text-anchor:middle" d="m 483.38281,-21.972656 q 0.0703,0.808594 0.10547,1.652344 0.0352,0.808593 0.0352,1.6875 0,2.496093 -0.2461,5.062499 -0.24609,2.53125 -0.5625,4.9218755 -0.10547,0.7734375 -0.28125,1.5820313 -0.14062,0.7734375 -0.14062,1.3710937 0,1.3007813 0.24609,2.53125 0.2461,1.1953125 0.2461,2.21484375 0,0.2109375 -0.28125,0.94921875 -0.28125,0.73828125 -0.91407,1.5117187 -0.59765,0.7734376 -1.58203,1.3710938 -0.94922,0.6328125 -2.32031,0.6328125 -1.58203,0 -2.14453,-0.9140625 Q 475.01562,1.6875 475.01562,0.28125 q 0,-0.984375 0.17579,-2.109375 0.17578,-1.1601563 0.38671,-2.3554687 -0.80859,0.1757812 -1.61718,0.6679687 -0.77344,0.4921875 -1.47657,0.9140625 -1.54687,0.9140625 -3.09375,1.93359375 -1.51171,1.01953125 -3.30468,1.86328125 -1.79297,0.84375 -3.9375,1.40625 -2.10938,0.5625 -4.85157,0.5625 -0.0703,0 -0.5625,0 -0.45703,0.035156 -1.08984,0 -0.63281,-0.035156 -1.33594,-0.1757812 -0.66797,-0.140625 -1.19531,-0.4570313 -0.77344,-0.7734375 -1.51172,-1.93359375 -0.70312,-1.125 -1.26562,-2.21484375 -0.52735,-1.125 -0.84375,-1.96875 -0.31641,-0.84375 -0.31641,-1.0195312 -0.0703,-0.1757813 -0.0703,-0.3164063 0,-0.1757812 0,-0.3515625 0,-0.7382812 0.10547,-1.5117187 0.10547,-0.8085938 0.24609,-1.5117188 0.14063,-0.7382813 0.24609,-1.2304688 0.10547,-0.5273442 0.10547,-0.7031252 0,-0.878906 -0.14062,-1.6875 -0.14063,-0.84375 -0.14063,-1.828125 0,-0.457031 0.0352,-0.949219 0.0703,-0.527343 0.24609,-1.089843 0,-0.03516 0.17578,-0.457031 0.17579,-0.421875 0.38672,-0.914063 0.2461,-0.492187 0.45703,-0.949219 0.2461,-0.457031 0.35157,-0.527343 0.24609,-0.210938 0.66797,-0.351563 0.42187,-0.140625 0.94921,-0.28125 0.52735,-0.140625 1.05469,-0.28125 0.5625,-0.140625 1.08985,-0.386719 0.80859,-0.386718 1.4414,-0.984375 0.66797,-0.597656 1.19531,-0.808593 0.35157,-0.175782 0.94922,-0.28125 0.63282,-0.105469 1.30078,-0.386719 0.45704,-0.140625 1.125,-0.386719 0.66797,-0.28125 1.40625,-0.492187 0.77344,-0.246094 1.54688,-0.421875 0.77344,-0.210938 1.47656,-0.28125 0.31641,0 0.77344,0.105468 0.49219,0.105469 1.16016,0.105469 0.49218,0 1.19531,-0.210937 0.70312,-0.210938 1.6875,-0.210938 0.98437,0 1.89844,0.140625 0.91406,0.140625 1.40625,0.140625 0.38671,0 0.45703,-0.210937 0.10547,-0.246094 0.10547,-0.5625 0,-0.527344 -0.21094,-1.230469 -0.21094,-0.703125 -0.49219,-1.371094 -0.28125,-0.667969 -0.52734,-1.160156 -0.2461,-0.492188 -0.35157,-0.632813 -0.52734,-0.667968 -1.19531,-1.019531 -0.63281,-0.351562 -1.16015,-0.351562 -0.5625,0 -1.125,0.140625 -0.52735,0.140625 -1.19532,0.140625 -0.49218,0 -1.01953,-0.07031 -0.49219,-0.07031 -0.98437,-0.07031 -1.19532,0 -2.77735,0.597656 -1.54687,0.597656 -3.1289,1.371094 -1.54688,0.773437 -2.95313,1.476562 -1.37109,0.667969 -2.21484,0.878906 -0.45703,0.105469 -0.94922,0.210938 -0.49219,0.07031 -0.94922,0.07031 -0.28125,0 -0.80859,-0.28125 -0.49219,-0.316406 -0.98438,-0.773437 -0.49219,-0.457031 -0.8789,-1.019531 -0.35157,-0.597657 -0.35157,-1.160157 0,-0.84375 0.45703,-1.371093 0.45704,-0.5625 1.125,-0.949219 0.66797,-0.386719 1.44141,-0.667969 0.80859,-0.316406 1.44141,-0.703125 0.80859,-0.492187 1.89843,-1.160156 1.08985,-0.667969 1.86329,-1.265625 0.80859,-0.667969 1.16015,-1.195313 0.35156,-0.5625 0.84375,-0.84375 0.49219,-0.28125 1.54688,-0.527343 1.05468,-0.246094 1.96875,-0.527344 0.28125,-0.105469 0.77343,-0.316406 0.52735,-0.210938 1.05469,-0.386719 0.5625,-0.175781 1.05469,-0.316406 0.52734,-0.140625 0.80859,-0.140625 h 0.14063 q 0.66797,0.246093 1.51172,0.386718 0.84375,0.105469 1.75781,0.210938 0.94922,0.105469 1.86328,0.246094 0.94922,0.105468 1.79297,0.316406 0.28125,0.07031 0.52734,0.316406 0.2461,0.210938 0.52735,0.316406 1.30078,0.386719 2.17968,0.808594 0.87891,0.386719 1.54688,1.265625 0.66797,0.84375 1.23047,2.460938 0.59765,1.582031 1.30078,4.324218 0.14062,0.632813 0.52734,1.160157 0.38672,0.527343 0.5625,1.054687 0.28125,0.878906 0.42188,2.144531 0.17578,1.230469 0.24609,2.320313 z m -8.4375,9.386718 q 0.17578,-0.175781 0.21094,-0.773437 0.0703,-0.632813 0.0703,-1.40625 0,-0.914063 -0.0351,-1.476562 -0.0352,-0.597657 -0.14063,-0.914063 -0.10547,-0.316406 -0.28125,-0.421875 -0.17578,-0.140625 -0.45703,-0.140625 -0.21094,0 -0.38672,0.03516 -0.14062,0.03516 -0.28125,0.07031 -0.14062,0.07031 -0.28125,0.105469 -0.5625,-0.07031 -1.05469,-0.07031 -0.45703,0 -0.94922,0 -0.98437,0 -1.82812,0.105469 -0.80859,0.105469 -1.61719,0.28125 -0.77344,0.175781 -1.54687,0.386719 -0.77344,0.210937 -1.65235,0.386718 -1.26562,0.316407 -2.32031,0.421875 -1.05469,0.105469 -1.82812,0.421875 -0.77344,0.316406 -1.19532,1.019531 -0.42187,0.667969 -0.42187,2.109375 0,1.476563 0.77344,2.003907 0.77343,0.4921872 2.25,0.4921872 0.45703,0 1.05468,-0.1406252 0.59766,-0.175781 1.26563,-0.386719 0.70312,-0.210937 1.40625,-0.421875 0.73828,-0.246093 1.47656,-0.421875 0.52734,-0.105468 1.125,-0.210937 0.63281,-0.140625 1.23047,-0.246094 0.63281,-0.105469 1.16016,-0.210937 0.5625,-0.105469 0.94921,-0.175782 0.2461,-0.03516 0.77344,-0.07031 0.52735,-0.07031 1.05469,-0.105469 0.52734,-0.07031 0.94922,-0.105469 0.45703,-0.07031 0.52734,-0.140625 z" stroke-width="0" stroke-linejoin="miter" stroke-miterlimit="2" fill="#d97757" stroke="#d97757" transform="translate(0 299.38410159) translate(442.85047984999994 59.21164475999999) scale(1.11) translate(-449.10548 39.304684)"></path>         <path id="path53951" style="font-style:normal;font-weight:normal;font-size:72px;line-height:1;font-family:'Freckle Face';font-variant-ligatures:none;text-align:center;text-anchor:middle" d="m 524.16406,-7.4882812 q 0.10547,1.40625 0.28125,2.6015625 0.21094,1.1953124 0.21094,2.2148437 0,0.84375 -0.28125,1.6523438 -0.24609,0.8085937 -0.91406,1.40624995 -0.63282,0.63281245 -1.72266,1.01953125 -1.05469,0.3867187 -2.67187,0.3867187 -2.17969,0 -3.44532,-0.2460937 -1.23047,-0.2460938 -1.82812,-0.84375 -0.59766,-0.59765625 -0.73828,-1.546875 -0.14063,-0.9492187 -0.14063,-2.390625 0,-0.5976563 0.0352,-1.2304687 0.0703,-0.6328125 0.14062,-1.3007813 -1.37109,0.3867188 -2.84765,0.703125 -1.44141,0.28125 -3.44532,0.6679688 -0.70312,0.1054687 -1.33593,0.4921874 -0.63282,0.3867188 -1.23047,0.3867188 -0.38672,0 -0.84375,-0.1054688 -0.42188,-0.1054687 -0.8086,-0.1054687 -0.91406,0 -1.89843,0.3164062 -0.94922,0.3164063 -1.65235,0.3164063 -0.63281,0 -1.4414,-0.3164063 -0.77344,-0.3164062 -1.86328,-0.3164062 h -1.23047 q -1.40625,0 -2.77735,-0.6328125 -1.37109,-0.6328125 -2.46093,-1.40625 -1.08985,-0.8085937 -1.79297,-1.5117187 -0.66797,-0.7382813 -0.66797,-0.9140626 -0.0703,-0.1054687 -0.14063,-0.5976562 -0.0703,-0.4921875 -0.14062,-1.0546875 -0.0352,-0.5625 -0.10547,-1.054688 -0.0352,-0.492187 -0.0352,-0.632812 -0.0703,-0.527344 -0.0703,-1.054688 0,-0.527343 0,-1.019531 0,-1.054687 0.0703,-2.003906 0.0703,-0.984375 0.17578,-1.96875 0.10547,-0.984375 0.17579,-2.003906 0.0703,-1.019531 0.0703,-2.144531 0,-0.5625 -0.0352,-1.125 -0.0351,-0.597657 -0.0351,-1.195313 0,-0.492187 0.0703,-0.808594 0.10547,-0.351562 0.21094,-0.632812 0.10546,-0.28125 0.21093,-0.527344 0.14063,-0.28125 0.21094,-0.632812 0.17578,-0.421875 0.10547,-0.949219 -0.0352,-0.5625 0.21094,-1.054688 0.0703,-0.28125 0.28125,-0.5625 0.24609,-0.316406 0.52734,-0.667968 0.31641,-0.351563 0.59766,-0.703125 0.3164,-0.351563 0.52734,-0.738282 0.31641,-0.5625 0.49219,-1.089843 0.21094,-0.5625 0.38672,-1.019532 0.17578,-0.492187 0.38672,-0.84375 0.21093,-0.386718 0.52734,-0.5625 0.21094,-0.140625 0.70312,-0.246093 0.49219,-0.105469 1.08985,-0.210938 0.59765,-0.140625 1.23047,-0.246094 0.66797,-0.105468 1.23047,-0.246093 1.58203,-0.386719 3.83203,-0.632813 2.28515,-0.28125 4.46484,-0.28125 1.54688,0 2.74219,0.316406 1.19531,0.316407 2.21484,0.738282 1.05469,0.386718 2.00391,0.808593 0.98437,0.421875 2.10937,0.632813 0.17578,-1.335938 0.2461,-3.234375 0.10547,-1.898438 0.10547,-3.902344 0,-1.054687 -0.10547,-2.109375 -0.0703,-1.054687 -0.21094,-2.039062 -0.10547,-1.019532 -0.21094,-1.863282 -0.0703,-0.878906 -0.0703,-1.546875 0,-0.457031 0.24609,-1.125 0.2461,-0.703125 0.66797,-1.300781 0.45703,-0.632812 1.05469,-1.054687 0.63281,-0.457032 1.37109,-0.457032 0.5625,0 1.19532,0.246094 0.63281,0.210938 1.16015,0.5625 0.52735,0.316406 0.87891,0.773438 0.35156,0.421875 0.35156,0.84375 0,0.457031 -0.14062,0.914062 -0.14063,0.457031 -0.14063,1.054688 0.0703,0.527343 0.38672,1.160156 0.35156,0.632812 0.45703,1.265625 0.21094,0.808594 0.21094,2.214844 0.0352,1.40625 0.0352,3.128906 0.0352,1.6875 0.10547,3.550781 0.0703,1.863281 0.38672,3.585938 0.10547,0.632812 0.35156,1.125 0.28125,0.457031 0.5625,0.949218 0.31641,0.457032 0.52735,1.019532 0.21094,0.527343 0.21094,1.300781 0,0.632812 -0.0703,1.371094 -0.0703,0.703125 -0.0703,1.582031 0.10547,2.039062 0.28125,4.359375 0.17578,2.285156 0.38672,4.710937 0.24609,2.425781 0.45703,4.886719 0.24609,2.4257812 0.45703,4.7460938 z m -10.4414,-17.3671878 q -0.17579,-0.210937 -0.73829,-0.246093 -0.52734,-0.07031 -1.26562,-0.07031 -0.73828,-0.03516 -1.61719,-0.07031 -0.8789,-0.07031 -1.72265,-0.246094 -0.49219,-0.105469 -0.8086,-0.246094 -0.28125,-0.140625 -0.52734,-0.246094 -0.2461,-0.140625 -0.52735,-0.210937 -0.28125,-0.105469 -0.70312,-0.105469 -1.33594,0 -2.60156,0.175781 -1.23047,0.140625 -1.9336,0.632813 -0.35156,0.28125 -0.70312,1.054687 -0.31641,0.773438 -0.5625,1.863282 -0.2461,1.089843 -0.38672,2.320312 -0.14063,1.230469 -0.14063,2.390625 0,2.285156 0.52735,3.234375 0.5625,0.949219 2.03906,0.949219 0.66797,0 1.40625,-0.140625 0.73828,-0.175782 1.44141,-0.351563 0.73828,-0.210937 1.33593,-0.386719 0.59766,-0.210937 1.01954,-0.28125 0.38671,-0.03516 1.37109,-0.140625 0.98437,-0.140625 2.00391,-0.28125 1.05468,-0.175781 1.89843,-0.351562 0.84375,-0.175781 0.98438,-0.386719 0.10547,-0.105468 0.14062,-0.492187 0.0703,-0.386719 0.0703,-0.878906 0,-0.457032 -0.0352,-0.984375 -0.0352,-0.5625 -0.0703,-1.019532 -0.0352,-0.492187 -0.0703,-0.84375 -0.0352,-0.351562 -0.0352,-0.457031 0,-0.03516 0.0703,-0.351562 0.0703,-0.316407 0.14063,-0.773438 0.0703,-0.457031 0.14062,-0.984375 0.0703,-0.527344 0.0703,-0.984375 0,-0.703125 -0.21093,-1.089844 z" stroke-width="0" stroke-linejoin="miter" stroke-miterlimit="2" fill="#d97757" stroke="#d97757" transform="translate(0 299.38410159) translate(484.13727394999995 44.187617159999995) scale(1.11) translate(-486.30079 52.839844)"></path>         <path id="path53953" style="font-style:normal;font-weight:normal;font-size:72px;line-height:1;font-family:'Freckle Face';font-variant-ligatures:none;text-align:center;text-anchor:middle" d="m 571.76562,-20.320312 v 0.316406 q 0,0.527344 -0.10546,1.160156 -0.10547,0.597656 -0.10547,1.195313 0,0.773437 0.0351,1.371093 0.0352,0.597656 0.0352,1.160156 0,0.632813 -0.14063,1.6875 -0.14062,1.019532 -0.42187,2.144532 -0.24609,1.089843 -0.63281,2.1093747 -0.38672,0.984375 -0.87891,1.5468751 -0.17578,0.2460937 -0.73828,0.5625 -0.5625,0.28125 -1.26563,0.5976562 -0.66796,0.3164063 -1.33593,0.6679688 -0.66797,0.3164062 -1.05469,0.6328125 -0.42188,0.3164062 -0.94922,0.8789062 -0.52734,0.5273437 -1.125,1.125 -0.5625,0.5625 -1.125,1.0898437 -0.5625,0.5273438 -1.05469,0.8437501 -0.38672,0.3164062 -1.01953,0.56249995 -0.59765,0.2109375 -1.19531,0.59765625 -0.42188,0.28125 -0.70313,0.5625 -0.24609,0.31640625 -0.49218,0.5625 -0.2461,0.2460937 -0.52735,0.3867187 -0.24609,0.140625 -0.66797,0.140625 -0.66796,0 -1.54687,-0.1054687 -0.87891,-0.070312 -1.86328,-0.1757813 -0.98438,-0.1054687 -2.00391,-0.2109375 -1.01953,-0.070312 -2.0039,-0.070312 -0.77344,0 -1.51172,0.1757813 -0.70313,0.1757812 -1.3711,0.3867187 -0.63281,0.2109375 -1.19531,0.3867188 -0.5625,0.1757813 -1.01953,0.1757813 -1.08984,0 -2.46094,-0.4218751 -1.33594,-0.421875 -2.67187,-0.703125 -0.5625,-0.1054687 -1.26563,-0.21093745 -0.70312,-0.0703125 -1.4414,-0.17578125 -0.70313,-0.0703125 -1.40625,-0.2109375 -0.66797,-0.10546875 -1.19532,-0.28125 -0.3164,-0.10546875 -0.5625,-0.31640625 -0.24609,-0.2109375 -0.5625,-0.45703125 -0.28125,-0.28125 -0.66797,-0.5273437 -0.35156,-0.28125 -0.8789,-0.4921875 -1.16016,-0.4218751 -2.00391,-0.5976563 -0.80859,-0.2109375 -1.37109,-0.5625 -0.52735,-0.3867188 -0.77344,-1.1601563 -0.24609,-0.8085937 -0.24609,-2.4960937 0,-1.6875 0.3164,-2.7070313 0.31641,-1.0546877 0.98438,-1.0546877 0.3164,0 0.66797,0.140625 0.35156,0.105469 0.70312,0.2812502 0.35156,0.140625 0.63281,0.28125 0.31641,0.1054688 0.52735,0.1054688 0.5625,0 0.91406,-0.5625 0.38672,-0.5625 0.59766,-1.441406 0.21093,-0.914063 0.28125,-2.003907 0.0703,-1.125 0.0703,-2.25 0,-2.074218 -0.10547,-4.007812 -0.10547,-1.96875 -0.10547,-3.058594 0,-0.421875 0.0703,-0.773437 0.0703,-0.386719 0.17579,-0.738281 0.10546,-0.351563 0.17578,-0.773438 0.0703,-0.421875 0.0703,-0.949219 0,-1.476562 -0.14063,-3.269531 -0.14062,-1.828125 -0.14062,-3.515625 0,-0.421875 0.0352,-1.089844 0.0703,-0.667968 0.14062,-1.371093 0.0703,-0.703125 0.10547,-1.335938 0.0703,-0.667969 0.0703,-1.089844 0,-0.386718 -0.38672,-0.527343 -0.35156,-0.175782 -0.91406,-0.246094 -0.5625,-0.105469 -1.23047,-0.175781 -0.63281,-0.105469 -1.19531,-0.386719 -0.5625,-0.28125 -0.94922,-0.808594 -0.35156,-0.527344 -0.35156,-1.476562 0,-0.808594 0.59765,-1.511719 0.63282,-0.738281 1.61719,-1.371094 0.98438,-0.632812 2.17969,-1.160156 1.19531,-0.5625 2.35547,-0.984375 1.16015,-0.457031 2.17969,-0.773438 1.01953,-0.351562 1.58203,-0.597656 1.19531,-0.492187 2.21484,-1.019531 1.05469,-0.5625 1.65234,-0.5625 0.59766,0 1.05469,0.28125 0.49219,0.246094 1.05469,0.246094 0.42187,-0.03516 0.84375,-0.210938 0.42187,-0.210937 0.87891,-0.421875 0.45703,-0.210937 0.94921,-0.351562 0.49219,-0.175782 1.05469,-0.175782 0.8086,0 1.3711,0.210938 0.59765,0.210937 1.05468,0.527344 0.49219,0.316406 0.94922,0.667968 0.45703,0.351563 1.08985,0.597657 0.66796,0.316406 1.37109,0.386718 0.70312,0.03516 1.30078,0.28125 1.47656,0.597657 2.63672,1.265625 1.19531,0.632813 2.17969,1.40625 1.01953,0.773438 1.89843,1.722657 0.87891,0.914062 1.79297,2.074218 0.63282,0.808594 1.51172,1.511719 0.87891,0.667969 1.3711,1.371094 0.35156,0.527344 0.77343,1.371094 0.42188,0.84375 0.8086,1.792968 0.42187,0.949219 0.80859,1.933594 0.38672,0.949219 0.70313,1.792969 0.35156,0.984375 0.77343,2.25 0.45703,1.230469 0.84375,2.636719 0.42188,1.40625 0.66797,2.882812 0.28125,1.476563 0.35156,2.882813 z m -15.11718,0.667968 q 0.3164,-1.300781 0.3164,-2.460937 0,-0.949219 -0.17578,-1.828125 -0.14062,-0.878906 -0.38672,-1.6875 -0.21093,-0.84375 -0.45703,-1.652344 -0.21094,-0.84375 -0.35156,-1.722656 -0.17578,-0.914063 -0.28125,-1.792969 -0.0703,-0.878906 -0.21094,-1.6875 -0.10547,-0.808594 -0.3164,-1.546875 -0.21094,-0.738281 -0.5625,-1.40625 -0.21094,-0.386719 -0.59766,-0.738281 -0.38672,-0.386719 -0.70313,-0.84375 -0.38671,-0.421875 -0.63281,-0.914063 -0.21094,-0.527343 -0.52734,-0.808593 -0.28125,-0.28125 -1.01953,-0.527344 -0.73828,-0.28125 -1.44141,-0.84375 -0.63281,-0.492188 -1.01953,-0.984375 -0.38672,-0.527344 -0.77344,-0.949219 -0.38672,-0.421875 -0.8789,-0.667969 -0.45704,-0.28125 -1.19532,-0.28125 -0.52734,0 -1.08984,0.105469 -0.52734,0.105469 -0.98438,0.246094 -0.42187,0.140625 -0.70312,0.316406 -0.24609,0.140625 -0.24609,0.28125 0,0.28125 0.0351,0.773438 0.0352,0.492187 0.0703,0.984375 0.0703,0.492187 0.10547,0.949218 0.0703,0.421875 0.0703,0.597657 -0.10547,2.003906 -0.28125,4.394531 -0.14063,2.355469 -0.14063,4.535156 0,1.335938 0.14063,2.460938 0.17578,1.089843 0.38671,2.144531 0.21094,1.054687 0.42188,2.144531 0.24609,1.089844 0.35156,2.320313 0.17578,1.898437 0.49219,3.621093 0.35156,1.6875 0.35156,2.953125 0,0.949219 -0.10547,2.074219 -0.10547,1.089844 -0.10547,2.2148437 0,1.0546875 0.21094,2.0390626 0.5625,-0.070312 1.08985,-0.070312 0.52734,0 1.01953,0 h 1.125 q 0.8789,0 1.6875,-0.070312 0.84375,-0.070313 1.58203,-0.4218751 0.77344,-0.3515625 1.47656,-1.0546875 0.70313,-0.7382817 1.37109,-2.0039067 0.14063,-0.246093 0.28125,-0.667968 0.17579,-0.457032 0.31641,-1.019532 0.17578,-0.5625 0.35156,-1.195312 0.21094,-0.632813 0.42188,-1.265625 0.35156,-1.019531 0.80859,-2.074219 0.49219,-1.054687 0.70313,-1.96875 z" stroke-width="0" stroke-linejoin="miter" stroke-miterlimit="2" fill="#d97757" stroke="#d97757" transform="translate(0 299.38410159) translate(528.5069043499999 47.465585909999994) scale(1.11) translate(-526.27343 49.886719)"></path>         <path id="path53955" style="font-style:normal;font-weight:normal;font-size:72px;line-height:1;font-family:'Freckle Face';font-variant-ligatures:none;text-align:center;text-anchor:middle" d="m 607.30859,-23.167969 q -0.0351,0.351563 -0.21093,0.597657 -0.14063,0.210937 -0.35157,0.527343 -0.17578,0.28125 -0.3164,0.703125 -0.14063,0.421875 -0.14063,1.125 0,0.28125 0.0352,0.492188 0.0352,0.210937 0.0352,0.492187 0,1.054688 -0.49218,1.652344 -0.45703,0.5625 -1.26563,0.914063 -0.77344,0.351562 -1.82812,0.5625 -1.05469,0.175781 -2.17969,0.492187 -0.80859,0.210937 -1.72266,0.492187 -0.91406,0.28125 -1.79297,0.28125 -1.47656,0 -2.10937,-0.84375 -0.59766,-0.843749 -0.77344,-2.109374 -0.17578,-1.300782 -0.10547,-2.777344 0.0703,-1.476563 -0.0351,-2.742188 -0.0703,-1.300781 -0.52735,-2.144531 -0.42187,-0.84375 -1.61718,-0.84375 -0.49219,0 -1.01954,0.175781 -0.52734,0.175782 -1.01953,0.421875 -0.45703,0.210938 -0.8789,0.457032 -0.38672,0.210937 -0.63282,0.316406 -0.52734,0.246094 -1.23046,0.527344 -0.66797,0.246093 -1.30079,0.5625 -0.63281,0.28125 -1.08984,0.667968 -0.42187,0.351563 -0.42187,0.84375 0,0.808594 0.35156,2.074219 0.38672,1.230469 0.80859,2.496094 0.42188,1.230469 0.77344,2.214843 0.38672,0.949219 0.38672,1.195313 0,0.246094 -0.10547,0.492187 -0.10547,0.210938 -0.10547,0.527344 0,0.492188 0.10547,1.054688 0.14062,0.5625 0.28125,1.195312 0.17578,0.597656 0.31641,1.2656252 0.14062,0.6328125 0.14062,1.3007813 0,0.2109375 -0.0352,0.9140625 -0.0352,0.6679688 -0.10546,1.4765625 -0.0703,0.7734375 -0.21094,1.5117188 -0.10547,0.7031249 -0.28125,1.0195312 -0.17578,0.28125 -0.42188,0.421875 -0.24609,0.140625 -0.52734,0.2460937 -0.28125,0.070312 -0.59766,0.1757813 -0.3164,0.070312 -0.66797,0.28125 -0.77343,0.4921875 -1.125,0.9140625 -0.35156,0.3867188 -0.70312,0.703125 -0.31641,0.28125 -0.84375,0.45703125 -0.49219,0.17578125 -1.58203,0.17578125 -1.51172,0 -2.53125,-0.3515625 -1.01953,-0.38671875 -1.65235,-1.1601562 -0.63281,-0.8085938 -0.91406,-2.0390626 -0.24609,-1.2304687 -0.24609,-2.9179687 0,-1.1601562 0.17578,-2.2851563 0.21094,-1.1601562 0.45703,-2.3203122 0.28125,-1.160157 0.52734,-2.320313 0.28125,-1.195312 0.42188,-2.460937 0.17578,-1.6875 0.28125,-3.621094 0.14062,-1.96875 0.14062,-3.65625 0,-1.40625 -0.21093,-3.164062 -0.0703,-0.421875 -0.2461,-0.84375 -0.17578,-0.421875 -0.17578,-0.808594 0,-0.527344 0.10547,-1.125 0.14063,-0.597656 0.28125,-1.195313 0.17578,-0.597656 0.31641,-1.195312 0.14062,-0.632813 0.17578,-1.230469 0,-0.597656 -0.17578,-0.949219 -0.14063,-0.386718 -0.14063,-0.773437 0,-0.984375 0.38672,-1.511719 0.38672,-0.5625 0.80859,-0.773437 0.42188,-0.246094 0.73829,-0.28125 0.3164,-0.03516 0.17578,-0.03516 1.33593,0 2.07422,0.5625 0.77343,0.527344 1.125,1.335938 0.38671,0.808594 0.49218,1.757812 0.10547,0.914063 0.17578,1.722657 0.0703,0.808593 0.17579,1.371093 0.14062,0.527344 0.5625,0.527344 0.28125,0 0.70312,-0.246094 0.45703,-0.246093 0.84375,-0.527343 0.38672,-0.28125 0.59766,-0.457032 0.21093,-0.210937 0.0703,-0.07031 l -0.0703,0.07031 q 0.0351,0 0.0703,-0.03516 0.10547,-0.105469 0.24609,-0.175781 -0.14062,0.07031 -0.14062,0.07031 h -0.0352 q 0.45703,-0.351562 0.91406,-0.703125 0.38672,-0.28125 0.84375,-0.597656 0.45704,-0.351562 0.84375,-0.5625 0.59766,-0.386719 1.33594,-0.527344 0.73828,-0.175781 1.33594,-0.5625 0.52734,-0.386718 1.05469,-0.84375 0.52734,-0.457031 0.94922,-0.738281 0.42187,-0.175781 1.01953,-0.351562 0.63281,-0.175782 1.33593,-0.28125 0.70313,-0.140625 1.3711,-0.210938 0.66797,-0.105469 1.19531,-0.105469 0.49219,0 0.84375,0.175782 0.35156,0.140625 0.66797,0.386718 0.31641,0.246094 0.66797,0.492188 0.38672,0.246094 0.91406,0.386719 0.66797,0.210937 1.54688,0.316406 0.8789,0.07031 1.61718,0.386719 0.77344,0.316406 1.30078,1.054687 0.52735,0.703125 0.49219,2.214844 0,0.667969 0.14063,1.195312 0.14062,0.527344 0.28125,0.949219 0.17578,0.421875 0.3164,0.808594 0.14063,0.386719 0.14063,0.808594 0,0.386718 -0.0703,0.84375 -0.0352,0.421875 -0.0352,0.878906 0,0.703125 0.24609,1.511719 0.28125,0.773437 0.28125,1.230468 z" stroke-width="0" stroke-linejoin="miter" stroke-miterlimit="2" fill="#d97757" stroke="#d97757" transform="translate(0 299.38410159) translate(582.3983922499998 61.514020079999995) scale(1.11) translate(-574.82432 37.230472)"></path>         <path id="path53957" style="font-style:normal;font-weight:normal;font-size:72px;line-height:1;font-family:'Freckle Face';font-variant-ligatures:none;text-align:center;text-anchor:middle" d="m 642.85156,-21.972656 q 0.0703,0.808594 0.10547,1.652344 0.0352,0.808593 0.0352,1.6875 0,2.496093 -0.2461,5.062499 -0.24609,2.53125 -0.5625,4.9218755 -0.10547,0.7734375 -0.28125,1.5820313 -0.14062,0.7734375 -0.14062,1.3710937 0,1.3007813 0.24609,2.53125 0.2461,1.1953125 0.2461,2.21484375 0,0.2109375 -0.28125,0.94921875 -0.28125,0.73828125 -0.91407,1.5117187 -0.59765,0.7734376 -1.58203,1.3710938 -0.94922,0.6328125 -2.32031,0.6328125 -1.58203,0 -2.14453,-0.9140625 Q 634.48437,1.6875 634.48437,0.28125 q 0,-0.984375 0.17579,-2.109375 0.17578,-1.1601563 0.38671,-2.3554687 -0.80859,0.1757812 -1.61718,0.6679687 -0.77344,0.4921875 -1.47657,0.9140625 -1.54687,0.9140625 -3.09375,1.93359375 -1.51171,1.01953125 -3.30468,1.86328125 -1.79297,0.84375 -3.9375,1.40625 -2.10938,0.5625 -4.85157,0.5625 -0.0703,0 -0.5625,0 -0.45703,0.035156 -1.08984,0 -0.63281,-0.035156 -1.33594,-0.1757812 -0.66797,-0.140625 -1.19531,-0.4570313 -0.77344,-0.7734375 -1.51172,-1.93359375 -0.70312,-1.125 -1.26562,-2.21484375 -0.52735,-1.125 -0.84375,-1.96875 -0.31641,-0.84375 -0.31641,-1.0195312 -0.0703,-0.1757813 -0.0703,-0.3164063 0,-0.1757812 0,-0.3515625 0,-0.7382812 0.10547,-1.5117187 0.10547,-0.8085938 0.24609,-1.5117188 0.14063,-0.7382813 0.24609,-1.2304688 0.10547,-0.5273442 0.10547,-0.7031252 0,-0.878906 -0.14062,-1.6875 -0.14063,-0.84375 -0.14063,-1.828125 0,-0.457031 0.0352,-0.949219 0.0703,-0.527343 0.24609,-1.089843 0,-0.03516 0.17578,-0.457031 0.17579,-0.421875 0.38672,-0.914063 0.2461,-0.492187 0.45703,-0.949219 0.2461,-0.457031 0.35157,-0.527343 0.24609,-0.210938 0.66797,-0.351563 0.42187,-0.140625 0.94921,-0.28125 0.52735,-0.140625 1.05469,-0.28125 0.5625,-0.140625 1.08985,-0.386719 0.80859,-0.386718 1.4414,-0.984375 0.66797,-0.597656 1.19531,-0.808593 0.35157,-0.175782 0.94922,-0.28125 0.63282,-0.105469 1.30078,-0.386719 0.45704,-0.140625 1.125,-0.386719 0.66797,-0.28125 1.40625,-0.492187 0.77344,-0.246094 1.54688,-0.421875 0.77344,-0.210938 1.47656,-0.28125 0.31641,0 0.77344,0.105468 0.49219,0.105469 1.16016,0.105469 0.49218,0 1.19531,-0.210937 0.70312,-0.210938 1.6875,-0.210938 0.98437,0 1.89844,0.140625 0.91406,0.140625 1.40625,0.140625 0.38671,0 0.45703,-0.210937 0.10547,-0.246094 0.10547,-0.5625 0,-0.527344 -0.21094,-1.230469 -0.21094,-0.703125 -0.49219,-1.371094 -0.28125,-0.667969 -0.52734,-1.160156 -0.2461,-0.492188 -0.35157,-0.632813 -0.52734,-0.667968 -1.19531,-1.019531 -0.63281,-0.351562 -1.16015,-0.351562 -0.5625,0 -1.125,0.140625 -0.52735,0.140625 -1.19532,0.140625 -0.49218,0 -1.01953,-0.07031 -0.49219,-0.07031 -0.98437,-0.07031 -1.19532,0 -2.77735,0.597656 -1.54687,0.597656 -3.1289,1.371094 -1.54688,0.773437 -2.95313,1.476562 -1.37109,0.667969 -2.21484,0.878906 -0.45703,0.105469 -0.94922,0.210938 -0.49219,0.07031 -0.94922,0.07031 -0.28125,0 -0.80859,-0.28125 -0.49219,-0.316406 -0.98438,-0.773437 -0.49219,-0.457031 -0.8789,-1.019531 -0.35157,-0.597657 -0.35157,-1.160157 0,-0.84375 0.45703,-1.371093 0.45704,-0.5625 1.125,-0.949219 0.66797,-0.386719 1.44141,-0.667969 0.80859,-0.316406 1.44141,-0.703125 0.80859,-0.492187 1.89843,-1.160156 1.08985,-0.667969 1.86329,-1.265625 0.80859,-0.667969 1.16015,-1.195313 0.35156,-0.5625 0.84375,-0.84375 0.49219,-0.28125 1.54688,-0.527343 1.05468,-0.246094 1.96875,-0.527344 0.28125,-0.105469 0.77343,-0.316406 0.52735,-0.210938 1.05469,-0.386719 0.5625,-0.175781 1.05469,-0.316406 0.52734,-0.140625 0.80859,-0.140625 h 0.14063 q 0.66797,0.246093 1.51172,0.386718 0.84375,0.105469 1.75781,0.210938 0.94922,0.105469 1.86328,0.246094 0.94922,0.105468 1.79297,0.316406 0.28125,0.07031 0.52734,0.316406 0.2461,0.210938 0.52735,0.316406 1.30078,0.386719 2.17968,0.808594 0.87891,0.386719 1.54688,1.265625 0.66797,0.84375 1.23047,2.460938 0.59765,1.582031 1.30078,4.324218 0.14062,0.632813 0.52734,1.160157 0.38672,0.527343 0.5625,1.054687 0.28125,0.878906 0.42188,2.144531 0.17578,1.230469 0.24609,2.320313 z m -8.4375,9.386718 q 0.17578,-0.175781 0.21094,-0.773437 0.0703,-0.632813 0.0703,-1.40625 0,-0.914063 -0.0351,-1.476562 -0.0352,-0.597657 -0.14063,-0.914063 -0.10547,-0.316406 -0.28125,-0.421875 -0.17578,-0.140625 -0.45703,-0.140625 -0.21094,0 -0.38672,0.03516 -0.14062,0.03516 -0.28125,0.07031 -0.14062,0.07031 -0.28125,0.105469 -0.5625,-0.07031 -1.05469,-0.07031 -0.45703,0 -0.94922,0 -0.98437,0 -1.82812,0.105469 -0.80859,0.105469 -1.61719,0.28125 -0.77344,0.175781 -1.54687,0.386719 -0.77344,0.210937 -1.65235,0.386718 -1.26562,0.316407 -2.32031,0.421875 -1.05469,0.105469 -1.82812,0.421875 -0.77344,0.316406 -1.19532,1.019531 -0.42187,0.667969 -0.42187,2.109375 0,1.476563 0.77344,2.003907 0.77343,0.4921872 2.25,0.4921872 0.45703,0 1.05468,-0.1406252 0.59766,-0.175781 1.26563,-0.386719 0.70312,-0.210937 1.40625,-0.421875 0.73828,-0.246093 1.47656,-0.421875 0.52734,-0.105468 1.125,-0.210937 0.63281,-0.140625 1.23047,-0.246094 0.63281,-0.105469 1.16016,-0.210937 0.5625,-0.105469 0.94921,-0.175782 0.2461,-0.03516 0.77344,-0.07031 0.52735,-0.07031 1.05469,-0.105469 0.52734,-0.07031 0.94922,-0.105469 0.45703,-0.07031 0.52734,-0.140625 z" stroke-width="0" stroke-linejoin="miter" stroke-miterlimit="2" fill="#d97757" stroke="#d97757" transform="translate(0 299.38410159) translate(619.8607923499998 59.21164475999999) scale(1.11) translate(-608.57423 39.304684)"></path>         <path id="path53959" style="font-style:normal;font-weight:normal;font-size:72px;line-height:1;font-family:'Freckle Face';font-variant-ligatures:none;text-align:center;text-anchor:middle" d="m 690.03125,-34.699219 q 0,0.632813 -0.24609,1.230469 -0.21094,0.5625 -0.38672,1.441406 -0.21094,1.019532 -0.35157,2.425782 -0.14062,1.371093 -0.38671,2.882812 -0.10547,0.773438 -0.28125,1.40625 -0.17579,0.632813 -0.35157,1.230469 -0.14062,0.597656 -0.24609,1.230469 -0.10547,0.597656 -0.10547,1.335937 0,0.738281 -0.14062,1.265625 -0.10547,0.527344 -0.28125,0.984375 -0.14063,0.457031 -0.28125,0.878906 -0.10547,0.421875 -0.10547,0.949219 0,0.351563 0.0351,0.667969 0.0352,0.316406 0.0352,0.632812 0,0.949219 -0.28125,1.828125 -0.24609,0.84375 -0.59766,1.652344 -0.3164,0.773437 -0.59765,1.546875 -0.2461,0.738281 -0.2461,1.4765625 0,0.3867187 0.0352,0.7382812 0.0352,0.3515625 0.0352,0.703125 0,1.4765626 -0.45704,2.2851563 -0.45703,0.8085938 -1.23046,1.2304688 -0.77344,0.3867187 -1.75782,0.5625 -0.98437,0.1406249 -2.03906,0.2812499 -0.73828,0.140625 -1.6875,0.3164063 -0.91406,0.140625 -1.82812,0.140625 -1.33594,0 -2.17969,-0.6679687 -0.8086,-0.703125 -1.65235,-2.109375 -0.84375,-1.40625 -2.0039,-3.5156251 -1.125,-2.1445312 -3.09375,-5.0273442 -0.66797,0.808594 -1.01953,1.757813 -0.31641,0.949219 -0.52735,2.003906 -0.21093,1.0546877 -0.38672,2.2500002 -0.17578,1.1601563 -0.52734,2.4257813 -0.0703,0.28125 -0.31641,0.5273438 -0.24609,0.2460937 -0.3164,0.6328125 -0.17578,0.4921875 -0.38672,1.0546875 -0.21094,0.5624999 -0.63281,1.0898437 -0.38672,0.4921875 -1.05469,0.84375 -0.66797,0.3164063 -1.72266,0.3164063 -0.59765,0 -1.33593,-0.1054688 -0.73829,-0.1054688 -1.86329,-0.1054688 -0.70312,0 -1.26562,0.070313 -0.52734,0.070312 -1.01953,0.070312 -0.70313,0 -1.01953,-0.2460938 -0.28125,-0.2460938 -0.42188,-0.7382813 -0.14062,-0.4921875 -0.24609,-1.2304687 -0.10547,-0.7382812 -0.42188,-1.7578125 -0.28125,-0.8789062 -0.66797,-1.6171875 -0.38671,-0.7734375 -0.59765,-1.4765625 -0.28125,-0.84375 -0.45703,-1.7578125 -0.17578,-0.949219 -0.35157,-1.863281 -0.14062,-0.949219 -0.3164,-1.828125 -0.17578,-0.878907 -0.45703,-1.6875 -0.38672,-0.914063 -0.98438,-1.441406 -0.5625,-0.5625 -0.84375,-1.195313 -0.28125,-0.667969 -0.5625,-1.546875 -0.24609,-0.878906 -0.49219,-1.828125 -0.24609,-0.949219 -0.52734,-1.898437 -0.28125,-0.984375 -0.63281,-1.863282 -0.10547,-0.28125 -0.31641,-0.773437 -0.21094,-0.492188 -0.42187,-1.089844 -0.17578,-0.597656 -0.35157,-1.230469 -0.14062,-0.667968 -0.14062,-1.300781 0,-1.089844 0.52734,-1.652344 0.5625,-0.5625 1.3711,-0.878906 0.80859,-0.316406 1.75781,-0.492187 0.98437,-0.210938 1.82812,-0.597657 0.94922,-0.421875 1.51172,-0.84375 0.59766,-0.457031 1.16016,-0.808593 0.5625,-0.386719 1.26562,-0.597657 0.70313,-0.246093 1.82813,-0.246093 1.23047,0 1.93359,0.175781 0.73828,0.140625 1.08985,0.492187 0.35156,0.351563 0.42187,0.914063 0.10547,0.527344 0.10547,1.300781 0.0352,0.738281 0.0352,1.722656 0,0.949219 0.21093,2.144532 0.38672,2.179687 0.73829,4.429687 0.35156,2.214844 0.5625,4.21875 0.8789,-0.667969 1.37109,-1.757812 0.49219,-1.089844 0.80859,-2.285157 0.31641,-1.230468 0.63282,-2.460937 0.35156,-1.230469 0.94921,-2.214844 0.59766,-0.984375 1.58204,-1.582031 1.01953,-0.632813 2.70703,-0.632813 1.08984,0 1.82812,0.632813 0.77344,0.597656 1.33594,1.511719 0.5625,0.878906 1.01953,1.96875 0.45703,1.054687 0.94922,1.933593 0.98437,1.828125 1.93359,3.375 0.98438,1.546875 2.00391,2.882813 0.28125,-1.757813 0.35156,-3.445313 0.10547,-1.722656 0.10547,-3.480468 0,-0.703125 -0.0352,-1.40625 -0.0352,-0.703125 -0.0352,-1.40625 0,-1.6875 0,-3.585938 0,-1.933594 0.28125,-3.585937 0.28125,-1.652344 0.98437,-2.742188 0.70313,-1.089844 2.10938,-1.089844 0.66797,0 1.51172,0.140625 0.84375,0.140625 1.65234,0.351563 0.84375,0.175781 1.47656,0.421875 0.66797,0.246094 0.98438,0.457031 0.14062,0.140625 0.52734,0.667969 0.42188,0.492187 0.8086,1.160156 0.42187,0.667969 0.73828,1.335938 0.3164,0.667968 0.35156,1.089843 z" stroke-width="0" stroke-linejoin="miter" stroke-miterlimit="2" fill="#d97757" stroke="#d97757" transform="translate(0 299.38410159) translate(660.0159747499998 58.07996091) scale(1.11) translate(-644.75007 40.324219)"></path>       </g>       <image xlink:href="https://app.brandmark.io/nounpreview/1082738.png" id="icon" style="display: none;" x="0" y="0"></image>     </g>   </g> </svg>